<svg xmlns="http://www.w3.org/2000/svg" width="56" height="57" fill="none"><circle cx="28" cy="28.5" r="28" fill="#34353B"/><path stroke="#fff" stroke-linecap="square" stroke-miterlimit="10" stroke-width="2" d="M36.275 27.318h-16.55a2.364 2.364 0 0 0-2.364 2.364v9.457a2.364 2.364 0 0 0 2.364 2.364h16.55a2.364 2.364 0 0 0 2.364-2.364v-9.457a2.364 2.364 0 0 0-2.364-2.364Z"/><path stroke="#fff" stroke-linecap="square" stroke-miterlimit="10" stroke-width="2" d="M28 36.775a2.364 2.364 0 1 0 0-4.728 2.364 2.364 0 0 0 0 4.728ZM33.91 22.589v-1.182a5.853 5.853 0 0 0-5.791-5.91H28a5.852 5.852 0 0 0-5.91 5.792v1.3"/></svg>