<svg xmlns="http://www.w3.org/2000/svg" width="57" height="57" fill="none"><circle cx="28.866" cy="28.5" r="28" fill="#E44E45"/><g clip-path="url(#a)"><g clip-path="url(#b)"><path fill="#fff" fill-rule="evenodd" d="M16.355 24.246c1.774 0 2.987 1.167 3.376 2.749h1.581c.904-.91 1.423-2.188 1.905-3.377 1.045-2.566 1.95-4.8 5.442-4.073.3-1.178 1.32-2.045 2.533-2.045 1.448 0 2.623 1.236 2.623 2.763 0 1.526-1.175 2.765-2.623 2.765-1.045 0-1.945-.644-2.37-1.577l-.007.032a4.196 4.196 0 0 0-1.019-.168c-1.713-.04-2.298 1.396-2.96 3.026l-.12.298c-.323.787-.669 1.596-1.14 2.353h14.538V24.45l.48.3 5.272 3.298-5.754 3.597v-2.794H27.019c.482.758.835 1.571 1.16 2.364.051.12.099.242.15.361.668 1.649 1.26 3.1 3.022 3.023.237-.01.494-.047.777-.117V33.17a.39.39 0 0 1 .378-.399h4.602c.21 0 .378.18.378.399V38.1c0 .22-.169.399-.378.399h-4.602c-.207 0-.378-.18-.378-.399v-1.723c-3.47.71-4.377-1.518-5.417-4.079-.497-1.22-1.032-2.536-1.98-3.45h-4.998c-.39 1.581-1.602 2.748-3.375 2.748-1.779 0-3.492-1.645-3.492-3.674s1.713-3.677 3.49-3.677Z" clip-rule="evenodd"/></g></g><defs><clipPath id="a"><path fill="#fff" d="M12.866 12.5h32v32h-32z"/></clipPath><clipPath id="b"><path fill="#fff" d="M12.866 17.5h31v21h-31z"/></clipPath></defs></svg>