<svg xmlns="http://www.w3.org/2000/svg" width="24" height="24" viewBox="0 0 24 24" fill="none">
  <path d="M12 22C17.5228 22 22 17.5228 22 12C22 6.47715 17.5228 2 12 2C6.47715 2 2 6.47715 2 12C2 17.5228 6.47715 22 12 22Z" stroke="#E0E1E8" stroke-opacity="0.7" stroke-width="2" stroke-linecap="round" stroke-linejoin="round"/>
  <path d="M12.82 7L12.69 14.7644H11.3051L11.1751 7H12.82ZM12 18C11.7234 18 11.4867 17.8971 11.2901 17.6913C11.0934 17.482 10.9968 17.2301 11.0001 16.9357C10.9968 16.6447 11.0934 16.3964 11.2901 16.1906C11.4867 15.9813 11.7234 15.8766 12 15.8766C12.27 15.8766 12.5034 15.9813 12.7 16.1906C12.8967 16.3964 12.9967 16.6447 13 16.9357C12.9967 17.1308 12.9483 17.3099 12.855 17.4731C12.765 17.6328 12.645 17.7605 12.495 17.8563C12.345 17.9521 12.18 18 12 18Z" fill="#E0E1E8" fill-opacity="0.7"/>
</svg>