<svg xmlns="http://www.w3.org/2000/svg" width="20" height="20" viewBox="0 0 20 20" fill="none">
  <path d="M7.5 9.16675H5.83333V10.8334H7.5V9.16675ZM10.8333 9.16675H9.16667V10.8334H10.8333V9.16675ZM14.1667 9.16675H12.5V10.8334H14.1667V9.16675ZM15.8333 3.33341H15V1.66675H13.3333V3.33341H6.66667V1.66675H5V3.33341H4.16667C3.24167 3.33341 2.50833 4.08341 2.50833 5.00008L2.5 16.6667C2.5 17.1088 2.67559 17.5327 2.98816 17.8453C3.30072 18.1578 3.72464 18.3334 4.16667 18.3334H15.8333C16.75 18.3334 17.5 17.5834 17.5 16.6667V5.00008C17.5 4.08341 16.75 3.33341 15.8333 3.33341ZM15.8333 16.6667H4.16667V7.50008H15.8333V16.6667Z" fill="#E0E1E8" fill-opacity="0.7"/>
</svg>