<svg width="17" height="16" viewBox="0 0 17 16" fill="none" xmlns="http://www.w3.org/2000/svg">
<path d="M16.5333 7.96468C16.5402 9.54687 16.0779 11.0956 15.2047 12.415C14.3315 13.7345 13.0867 14.7654 11.6276 15.3773C10.1686 15.9893 8.5608 16.1549 7.00763 15.8532C5.45446 15.5514 4.02565 14.7959 2.90186 13.6821C1.77807 12.5684 1.00978 11.1464 0.694138 9.59596C0.378495 8.04556 0.529676 6.43637 1.12856 4.97189C1.72745 3.5074 2.74715 2.25339 4.05872 1.36842C5.37028 0.483447 6.91481 0.00726258 8.49701 7.87958e-05C10.6188 -0.00933154 12.6575 0.824485 14.1646 2.31812C15.6716 3.81175 16.5237 5.84286 16.5333 7.96468Z" fill="#8DC63F"/>
<path d="M15.9306 7.96635C15.9372 9.42938 15.5099 10.8615 14.7026 12.0817C13.8953 13.3019 12.7443 14.2552 11.3952 14.8213C10.0461 15.3873 8.55945 15.5406 7.12323 15.2617C5.68701 14.9828 4.36574 14.2843 3.32651 13.2545C2.28728 12.2247 1.57675 10.9098 1.28478 9.4762C0.992817 8.04259 1.13252 6.55458 1.68623 5.20037C2.23994 3.84615 3.18279 2.68653 4.39554 1.86816C5.6083 1.04979 7.03649 0.609422 8.49952 0.602738C9.47095 0.598301 10.4337 0.785247 11.3329 1.1529C12.2321 1.52056 13.0501 2.06172 13.7401 2.7455C14.4302 3.42928 14.9788 4.24227 15.3546 5.13807C15.7304 6.03386 15.9261 6.99491 15.9306 7.96635Z" fill="#F9E988"/>
<path d="M8.66809 1.08237C9.13837 0.998422 9.61979 0.998422 10.0901 1.08237C10.5649 1.1576 11.0238 1.31143 11.448 1.53754C11.8694 1.76934 12.2344 2.08374 12.5969 2.38044C12.9593 2.67714 13.3209 2.97722 13.6648 3.30764C14.0155 3.63251 14.3216 4.00239 14.5752 4.40763C14.8366 4.81013 15.0507 5.24146 15.2132 5.69305C15.5295 6.59507 15.6195 7.56091 15.4754 8.50582H15.4282C15.2894 7.6031 15.0571 6.71723 14.7353 5.86248C14.5811 5.43977 14.3995 5.02756 14.1916 4.62847C13.9732 4.23053 13.7329 3.84501 13.4718 3.47369C13.2054 3.09786 12.8791 2.76838 12.5058 2.49845C12.1307 2.23125 11.6992 2.05761 11.2811 1.89324C10.863 1.72888 10.4449 1.56535 10.0108 1.43976C9.57674 1.31417 9.13253 1.22061 8.66978 1.12957L8.66809 1.08237Z" fill="white"/>
<path d="M12.2841 5.35333C11.7472 5.1974 11.1883 4.9774 10.627 4.75487C10.5949 4.61326 10.4693 4.4371 10.2165 4.22216C9.84812 3.9027 9.15694 3.91112 8.55932 4.05358C7.90017 3.89848 7.2486 3.84369 6.62064 3.99373C1.50843 5.40138 4.40802 8.84296 2.53003 12.2989C2.79723 12.8653 5.67743 16.1762 9.84475 15.2853C9.84475 15.2853 8.42024 11.8606 11.6359 10.2169C14.2447 8.8792 16.1303 6.40275 12.2841 5.35333Z" fill="#8BC53F"/>
<path d="M12.9155 7.60478C12.916 7.6662 12.8983 7.72639 12.8645 7.77771C12.8308 7.82903 12.7826 7.86918 12.726 7.89307C12.6694 7.91696 12.607 7.92352 12.5467 7.9119C12.4864 7.90029 12.4309 7.87103 12.3872 7.82784C12.3435 7.78465 12.3137 7.72946 12.3014 7.66928C12.2891 7.60909 12.295 7.54662 12.3183 7.48978C12.3416 7.43294 12.3812 7.38429 12.4321 7.34999C12.4831 7.31569 12.5431 7.29729 12.6045 7.29712C12.6451 7.2969 12.6854 7.30468 12.723 7.32002C12.7606 7.33537 12.7949 7.35797 12.8237 7.38654C12.8526 7.4151 12.8756 7.44908 12.8913 7.48653C12.9071 7.52398 12.9153 7.56416 12.9155 7.60478Z" fill="white"/>
<path d="M8.55933 4.05194C8.93189 4.07892 10.2797 4.51891 10.627 4.75492C10.3395 3.91202 9.36261 3.80244 8.55933 4.05194Z" fill="#009345"/>
<path d="M8.91421 6.17775C8.91421 6.46116 8.83017 6.7382 8.67272 6.97385C8.51527 7.20949 8.29147 7.39315 8.02964 7.50161C7.7678 7.61007 7.47969 7.63844 7.20173 7.58315C6.92376 7.52786 6.66844 7.39139 6.46804 7.19099C6.26764 6.99059 6.13116 6.73526 6.07587 6.4573C6.02058 6.17934 6.04896 5.89122 6.15742 5.62939C6.26587 5.36755 6.44954 5.14376 6.68518 4.98631C6.92083 4.82885 7.19787 4.74481 7.48128 4.74481C7.86132 4.74481 8.22579 4.89578 8.49452 5.16451C8.76324 5.43324 8.91421 5.79771 8.91421 6.17775Z" fill="white"/>
<path d="M8.49027 6.19034C8.49044 6.38943 8.43155 6.58409 8.32107 6.74971C8.21058 6.91533 8.05346 7.04445 7.86957 7.12076C7.68569 7.19706 7.4833 7.21711 7.28802 7.17837C7.09273 7.13963 6.91333 7.04385 6.77249 6.90313C6.63166 6.76241 6.53572 6.58309 6.49682 6.38784C6.45792 6.19258 6.4778 5.99018 6.55395 5.80623C6.6301 5.62228 6.75909 5.46505 6.92462 5.35443C7.09014 5.2438 7.28476 5.18475 7.48384 5.18475C7.75055 5.18498 8.00628 5.29097 8.19495 5.47948C8.38362 5.66799 8.48982 5.92363 8.49027 6.19034Z" fill="#58595B"/>
<path d="M14.0745 8.23527C12.9155 9.05204 11.5972 9.6682 9.72768 9.6682C8.85275 9.6682 8.67574 8.74101 8.09751 9.19449C7.79828 9.42966 6.74886 9.9531 5.91017 9.91602C5.07148 9.87893 3.71862 9.38583 3.34353 7.60309C3.19433 9.38583 3.11763 10.6991 2.44836 12.2045C3.78184 14.3396 6.96043 15.9858 9.84485 15.2777C9.5355 13.1132 11.427 10.9924 12.4932 9.90759C12.8962 9.49709 13.6733 8.82614 14.0745 8.23189V8.23527Z" fill="#8BC53F"/>
<path d="M14.029 8.28919C13.6597 8.60674 13.2477 8.87089 12.8051 9.07393C12.3638 9.28359 11.9038 9.45123 11.4311 9.57461C10.9591 9.69684 10.4652 9.78871 9.96533 9.74319C9.46549 9.69768 8.95384 9.52741 8.62427 9.15316L8.64028 9.13462C9.04825 9.39845 9.51437 9.49117 9.97966 9.50465C10.4521 9.51837 10.9245 9.47907 11.3881 9.38749C11.8565 9.28986 12.3148 9.14877 12.757 8.96604C13.2064 8.79444 13.6294 8.56065 14.0138 8.27148L14.029 8.28919Z" fill="#58595B"/>
</svg>
