<svg xmlns="http://www.w3.org/2000/svg" width="40" height="40" viewBox="0 0 40 40" fill="none">
  <path opacity="0.87" d="M28.3333 11.6667H21.6666V15H28.3333C31.0833 15 33.3333 17.25 33.3333 20C33.3333 22.75 31.0833 25 28.3333 25H21.6666V28.3334H28.3333C32.9333 28.3334 36.6666 24.6 36.6666 20C36.6666 15.4 32.9333 11.6667 28.3333 11.6667ZM18.3333 25H11.6666C8.91658 25 6.66659 22.75 6.66659 20C6.66659 17.25 8.91658 15 11.6666 15H18.3333V11.6667H11.6666C7.06659 11.6667 3.33325 15.4 3.33325 20C3.33325 24.6 7.06659 28.3334 11.6666 28.3334H18.3333V25ZM13.3333 18.3334H26.6666V21.6667H13.3333V18.3334Z" fill="white"/>
</svg>