<svg xmlns="http://www.w3.org/2000/svg" width="17" height="14" viewBox="0 0 17 14" fill="none">
  <path opacity="0.8" d="M13.9826 2.27569C13.9826 2.27569 12.2968 0.862453 10.3022 0.700012L10.125 1.08446C11.9272 1.55553 12.7524 2.23237 13.6181 3.06082C12.1297 2.24862 10.6566 1.48514 8.09494 1.48514C5.53331 1.48514 4.06012 2.24862 2.57175 3.06082C3.43744 2.23237 4.41956 1.47973 6.06487 1.08446L5.88769 0.700012C3.79688 0.911185 2.20725 2.27569 2.20725 2.27569C2.20725 2.27569 0.324 5.19963 0 10.9392C1.89844 13.2838 4.78406 13.3 4.78406 13.3L5.3865 12.4391C4.36387 12.06 3.20456 11.3778 2.20725 10.1487C3.39694 11.1125 5.19919 12.1196 8.1 12.1196C11.0008 12.1196 12.798 11.1179 13.9928 10.1487C12.9954 11.3778 11.8361 12.06 10.8135 12.4391L11.4159 13.3C11.4159 13.3 14.3016 13.2838 16.2 10.9392C15.8659 5.19963 13.9826 2.27569 13.9826 2.27569ZM5.69531 9.36353C4.9815 9.36353 4.40437 8.65962 4.40437 7.78785C4.40437 6.91609 4.9815 6.21217 5.69531 6.21217C6.40912 6.21217 6.98625 6.91609 6.98625 7.78785C6.98625 8.65962 6.40912 9.36353 5.69531 9.36353ZM10.4844 9.36353C9.77062 9.36353 9.1935 8.65962 9.1935 7.78785C9.1935 6.91609 9.77062 6.21217 10.4844 6.21217C11.1982 6.21217 11.7754 6.91609 11.7754 7.78785C11.7754 8.65962 11.1932 9.36353 10.4844 9.36353Z" fill="white"/>
</svg>