<svg xmlns="http://www.w3.org/2000/svg" width="20" height="20" viewBox="0 0 20 20" fill="none">
  <path d="M11.9917 9.16663L13.3334 10.5083V9.16663H11.9917ZM14.1667 5.8333H10.8334V7.41663H14.1667C15.5917 7.41663 16.7501 8.57497 16.7501 9.99997C16.7501 11.0583 16.1084 11.975 15.1917 12.3666L16.3584 13.5333C16.9615 13.1616 17.4596 12.6418 17.8053 12.0234C18.151 11.405 18.3328 10.7084 18.3334 9.99997C18.3334 7.69997 16.4667 5.8333 14.1667 5.8333ZM1.66675 3.5583L4.25841 6.14997C3.49274 6.46151 2.83726 6.99414 2.37565 7.67987C1.91404 8.36561 1.66724 9.17334 1.66675 9.99997C1.66675 12.3 3.53341 14.1666 5.83341 14.1666H9.16675V12.5833H5.83341C4.40841 12.5833 3.25008 11.425 3.25008 9.99997C3.25008 8.67497 4.25841 7.5833 5.55008 7.44163L7.27508 9.16663H6.66675V10.8333H8.94175L10.8334 12.725V14.1666H12.2751L15.6167 17.5083L16.7917 16.3333L2.84175 2.3833L1.66675 3.5583Z" fill="#E0E1E8"/>
</svg>