<svg width="20" height="20" viewBox="0 0 20 20" fill="none" xmlns="http://www.w3.org/2000/svg">
<path fill-rule="evenodd" clip-rule="evenodd" d="M9.5 2.8C7.59044 2.8 5.75909 3.55857 4.40883 4.90883C3.05857 6.25909 2.3 8.09044 2.3 10C2.3 11.9096 3.05857 13.7409 4.40883 15.0912C5.75909 16.4414 7.59044 17.2 9.5 17.2C11.4096 17.2 13.2409 16.4414 14.5912 15.0912C15.9414 13.7409 16.7 11.9096 16.7 10C16.7 8.09044 15.9414 6.25909 14.5912 4.90883C13.2409 3.55857 11.4096 2.8 9.5 2.8ZM0.5 10C0.5 5.0293 4.5293 1 9.5 1C14.4707 1 18.5 5.0293 18.5 10C18.5 14.9707 14.4707 19 9.5 19C4.5293 19 0.5 14.9707 0.5 10ZM11.9741 7.534L9.3515 8.4304C8.5991 8.7058 8.1167 9.2251 7.9412 9.811C7.93809 9.82186 7.93478 9.83266 7.9313 9.8434L7.034 12.4642L9.6485 11.5705C10.4009 11.2951 10.8833 10.7758 11.0588 10.1899C11.0632 10.1751 11.068 10.1604 11.0732 10.1458L11.5178 8.9011L11.9741 7.5349V7.534ZM13.5455 5.8627C13.9235 6.2065 14.0702 6.715 13.9685 7.2208C13.9613 7.2568 13.9514 7.2928 13.9397 7.3288L13.2224 9.4789L13.2161 9.4969L12.7751 10.7299C12.4088 11.9224 11.4638 12.8251 10.2551 13.2643L10.2389 13.2697L6.8324 14.4343C6.5967 14.5086 6.34571 14.5203 6.10412 14.4683C5.86252 14.4162 5.63864 14.3021 5.4545 14.1373C5.0765 13.7935 4.9298 13.285 5.0315 12.7792C5.0396 12.7405 5.0495 12.7018 5.0621 12.664L6.2231 9.2755C6.5885 8.0803 7.5344 7.1749 8.7449 6.7357L8.7611 6.7303L12.1676 5.5657C12.4033 5.49136 12.6543 5.47965 12.8959 5.53173C13.1375 5.5838 13.3614 5.69786 13.5455 5.8627Z" fill="white"/>
</svg>
