<svg xmlns="http://www.w3.org/2000/svg" width="17" height="16" viewBox="0 0 17 16" fill="none">
  <g opacity="0.8" clip-path="url(#clip0_1626_2529)">
    <path fill-rule="evenodd" clip-rule="evenodd" d="M8.34229 0C3.83978 0 0.199951 3.66667 0.199951 8.20283C0.199951 11.8288 2.53212 14.8982 5.76745 15.9845C6.17195 16.0662 6.32012 15.808 6.32012 15.5908C6.32012 15.4007 6.30678 14.7488 6.30678 14.0697C4.04178 14.5587 3.57012 13.0918 3.57012 13.0918C3.20612 12.1412 2.66678 11.8968 2.66678 11.8968C1.92545 11.3943 2.72078 11.3943 2.72078 11.3943C3.54312 11.4487 3.97462 12.2363 3.97462 12.2363C4.70245 13.4857 5.87528 13.1327 6.34712 12.9153C6.41445 12.3857 6.63028 12.019 6.85945 11.8153C5.05295 11.6252 3.15228 10.919 3.15228 7.76817C3.15228 6.87183 3.47562 6.1385 3.98795 5.56817C3.90712 5.3645 3.62395 4.52233 4.06895 3.39517C4.06895 3.39517 4.75645 3.17783 6.30662 4.23717C6.9703 4.05761 7.65474 3.96627 8.34229 3.9655C9.02979 3.9655 9.73062 4.06067 10.3778 4.23717C11.9281 3.17783 12.6156 3.39517 12.6156 3.39517C13.0606 4.52233 12.7773 5.3645 12.6965 5.56817C13.2223 6.1385 13.5323 6.87183 13.5323 7.76817C13.5323 10.919 11.6316 11.6115 9.81162 11.8153C10.1083 12.0733 10.3643 12.5622 10.3643 13.3363C10.3643 14.4363 10.351 15.3192 10.351 15.5907C10.351 15.808 10.4993 16.0662 10.9036 15.9847C14.139 14.898 16.4711 11.8288 16.4711 8.20283C16.4845 3.66667 12.8313 0 8.34229 0Z" fill="white"/>
  </g>
  <defs>
    <clipPath id="clip0_1626_2529">
      <rect width="16.3333" height="16" fill="white" transform="translate(0.199951)"/>
    </clipPath>
  </defs>
</svg>