<svg xmlns="http://www.w3.org/2000/svg" width="20" height="21" viewBox="0 0 20 21" fill="none">
  <path d="M9.16797 12.9993H10.8346V14.666H9.16797V12.9993ZM9.16797 6.33268H10.8346V11.3327H9.16797V6.33268ZM9.99297 2.16602C5.39297 2.16602 1.66797 5.89935 1.66797 10.4993C1.66797 15.0993 5.39297 18.8327 9.99297 18.8327C14.6013 18.8327 18.3346 15.0993 18.3346 10.4993C18.3346 5.89935 14.6013 2.16602 9.99297 2.16602ZM10.0013 17.166C6.31797 17.166 3.33464 14.1827 3.33464 10.4993C3.33464 6.81601 6.31797 3.83268 10.0013 3.83268C13.6846 3.83268 16.668 6.81601 16.668 10.4993C16.668 14.1827 13.6846 17.166 10.0013 17.166Z" fill="#E44E45"/>
</svg>