<svg xmlns="http://www.w3.org/2000/svg" width="40" height="40" viewBox="0 0 40 40" fill="none">
  <path d="M31.6667 5H8.33333C6.12401 5.00265 4.00593 5.88147 2.4437 7.4437C0.88147 9.00593 0.00264643 11.124 0 13.3333L0 23.3333C0.00264643 25.5427 0.88147 27.6607 2.4437 29.223C4.00593 30.7852 6.12401 31.664 8.33333 31.6667H18.3333V33.3333H13.3333C12.8913 33.3333 12.4674 33.5089 12.1548 33.8215C11.8423 34.1341 11.6667 34.558 11.6667 35C11.6667 35.442 11.8423 35.866 12.1548 36.1785C12.4674 36.4911 12.8913 36.6667 13.3333 36.6667H26.6667C27.1087 36.6667 27.5326 36.4911 27.8452 36.1785C28.1577 35.866 28.3333 35.442 28.3333 35C28.3333 34.558 28.1577 34.1341 27.8452 33.8215C27.5326 33.5089 27.1087 33.3333 26.6667 33.3333H21.6667V31.6667H31.6667C33.876 31.664 35.9941 30.7852 37.5563 29.223C39.1185 27.6607 39.9974 25.5427 40 23.3333V13.3333C39.9974 11.124 39.1185 9.00593 37.5563 7.4437C35.9941 5.88147 33.876 5.00265 31.6667 5ZM36.6667 23.3333C36.6667 24.6594 36.1399 25.9312 35.2022 26.8689C34.2645 27.8066 32.9927 28.3333 31.6667 28.3333H8.33333C7.00725 28.3333 5.73548 27.8066 4.7978 26.8689C3.86012 25.9312 3.33333 24.6594 3.33333 23.3333V13.3333C3.33333 12.0073 3.86012 10.7355 4.7978 9.7978C5.73548 8.86012 7.00725 8.33333 8.33333 8.33333H31.6667C32.9927 8.33333 34.2645 8.86012 35.2022 9.7978C36.1399 10.7355 36.6667 12.0073 36.6667 13.3333V23.3333Z" fill="#E0E1E8" fill-opacity="0.7"/>
</svg>