<svg xmlns="http://www.w3.org/2000/svg" width="12" height="12" viewBox="0 0 12 12" fill="none">
  <g clip-path="url(#clip0_868_2367)">
    <path d="M6.46197 2.00757L1.23447 7.23432C1.18855 7.28054 1.15547 7.33792 1.13847 7.40082L0.0134744 11.5258C-0.00393374 11.5896 -0.00416689 11.6569 0.0127986 11.7208C0.0297641 11.7847 0.0633251 11.843 0.110079 11.8897C0.156833 11.9365 0.215118 11.97 0.279024 11.987C0.342931 12.004 0.410187 12.0037 0.473974 11.9863L4.59897 10.8613C4.66187 10.8443 4.71926 10.8112 4.76547 10.7653L9.99222 5.53782L6.46197 2.00757Z" fill="#E0E1E8"/>
    <path d="M11.6706 2.26864L9.73107 0.329141C9.5201 0.118236 9.234 -0.000244141 8.93569 -0.000244141C8.63738 -0.000244141 8.35129 0.118236 8.14032 0.329141L7.25757 1.21189L10.7878 4.74214L11.6706 3.85939C11.8815 3.64842 12 3.36232 12 3.06402C12 2.76571 11.8815 2.47961 11.6706 2.26864Z" fill="#E0E1E8"/>
  </g>
  <defs>
    <clipPath id="clip0_868_2367">
      <rect width="12" height="12" fill="white"/>
    </clipPath>
  </defs>
</svg>