<svg xmlns="http://www.w3.org/2000/svg" width="20" height="20" viewBox="0 0 20 20" fill="none">
  <path d="M9.16675 13.3334H10.8334V15.0001H9.16675V13.3334ZM10.0001 1.66675C5.40008 1.66675 1.66675 5.40008 1.66675 10.0001C1.66675 14.6001 5.40008 18.3334 10.0001 18.3334C14.6001 18.3334 18.3334 14.6001 18.3334 10.0001C18.3334 5.40008 14.6001 1.66675 10.0001 1.66675ZM10.0001 16.6667C6.32508 16.6667 3.33341 13.6751 3.33341 10.0001C3.33341 6.32508 6.32508 3.33341 10.0001 3.33341C13.6751 3.33341 16.6667 6.32508 16.6667 10.0001C16.6667 13.6751 13.6751 16.6667 10.0001 16.6667ZM10.0001 5.00008C8.15841 5.00008 6.66675 6.49175 6.66675 8.33341H8.33341C8.33341 7.41675 9.08341 6.66675 10.0001 6.66675C10.9167 6.66675 11.6667 7.41675 11.6667 8.33341C11.6667 10.0001 9.16675 9.79175 9.16675 12.5001H10.8334C10.8334 10.6251 13.3334 10.4167 13.3334 8.33341C13.3334 6.49175 11.8417 5.00008 10.0001 5.00008Z" fill="#E0E1E8" fill-opacity="0.7"/>
</svg>