<svg width="18" height="18" viewBox="0 0 18 18" fill="none" xmlns="http://www.w3.org/2000/svg">
<g clip-path="url(#clip0_156_1575)">
<path d="M17.3325 7.50001L15.1035 7.25251C14.9704 6.78624 14.7842 6.3368 14.5485 5.91301L15.9495 4.16101C16.0648 4.01686 16.1229 3.83523 16.1127 3.65091C16.1025 3.46658 16.0246 3.29251 15.894 3.16201L14.8335 2.10001C14.703 1.96944 14.5289 1.89157 14.3446 1.88133C14.1603 1.87109 13.9787 1.92919 13.8345 2.04451L12.0825 3.45001C11.6587 3.21435 11.2093 3.02814 10.743 2.89501L10.5 0.667514C10.4796 0.483224 10.3917 0.313021 10.2532 0.189752C10.1147 0.0664838 9.93542 -0.00111098 9.75001 1.3815e-05H8.25001C8.0646 -0.00111098 7.88535 0.0664838 7.74684 0.189752C7.60834 0.313021 7.52041 0.483224 7.50001 0.667514L7.25701 2.89651C6.79074 3.02963 6.3413 3.21585 5.91751 3.45151L4.16551 2.05051C4.02136 1.93519 3.83973 1.87709 3.65541 1.88733C3.47108 1.89757 3.29701 1.97544 3.16651 2.10601L2.10001 3.16651C1.96944 3.29701 1.89157 3.47108 1.88133 3.65541C1.87109 3.83973 1.92919 4.02136 2.04451 4.16551L3.45001 5.91751C3.21435 6.3413 3.02814 6.79074 2.89501 7.25701L0.667514 7.50001C0.483224 7.52041 0.313021 7.60834 0.189752 7.74684C0.0664838 7.88535 -0.00111098 8.0646 1.3815e-05 8.25001V9.75001C-0.00111098 9.93542 0.0664838 10.1147 0.189752 10.2532C0.313021 10.3917 0.483224 10.4796 0.667514 10.5L2.89651 10.7475C3.02963 11.2138 3.21585 11.6632 3.45151 12.087L2.05051 13.8345C1.93519 13.9787 1.87709 14.1603 1.88733 14.3446C1.89757 14.5289 1.97544 14.703 2.10601 14.8335L3.16651 15.894C3.29701 16.0246 3.47108 16.1025 3.65541 16.1127C3.83973 16.1229 4.02136 16.0648 4.16551 15.9495L5.91751 14.55C6.3413 14.7857 6.79074 14.9719 7.25701 15.105L7.50001 17.3325C7.52041 17.5168 7.60834 17.687 7.74684 17.8103C7.88535 17.9335 8.0646 18.0011 8.25001 18H9.75001C9.93542 18.0011 10.1147 17.9335 10.2532 17.8103C10.3917 17.687 10.4796 17.5168 10.5 17.3325L10.7475 15.1035C11.2138 14.9704 11.6632 14.7842 12.087 14.5485L13.839 15.9495C13.9832 16.0648 14.1648 16.1229 14.3491 16.1127C14.5334 16.1025 14.7075 16.0246 14.838 15.894L15.8985 14.8335C16.0291 14.703 16.107 14.5289 16.1172 14.3446C16.1274 14.1603 16.0693 13.9787 15.954 13.8345L14.55 12.0825C14.7857 11.6587 14.9719 11.2093 15.105 10.743L17.3325 10.5C17.5168 10.4796 17.687 10.3917 17.8103 10.2532C17.9335 10.1147 18.0011 9.93542 18 9.75001V8.25001C18.0011 8.0646 17.9335 7.88535 17.8103 7.74684C17.687 7.60834 17.5168 7.52041 17.3325 7.50001ZM9.00001 12C8.40667 12 7.82665 11.8241 7.3333 11.4944C6.83996 11.1648 6.45544 10.6962 6.22837 10.1481C6.00131 9.59989 5.9419 8.99669 6.05766 8.41474C6.17341 7.8328 6.45914 7.29825 6.87869 6.87869C7.29825 6.45914 7.8328 6.17341 8.41474 6.05766C8.99669 5.9419 9.59989 6.00131 10.1481 6.22837C10.6962 6.45544 11.1648 6.83996 11.4944 7.3333C11.8241 7.82665 12 8.40667 12 9.00001C12 9.79566 11.6839 10.5587 11.1213 11.1213C10.5587 11.6839 9.79566 12 9.00001 12Z" fill="#E0E1E8"/>
</g>
<defs>
<clipPath id="clip0_156_1575">
<rect width="18" height="18" fill="white"/>
</clipPath>
</defs>
</svg>
