<svg xmlns="http://www.w3.org/2000/svg" width="17" height="16" viewBox="0 0 17 16" fill="none">
  <g opacity="0.8">
    <path d="M2.85832 7.22603C2.85832 7.22603 9.05018 4.5918 11.1976 3.66423C12.0208 3.29323 14.8125 2.10593 14.8125 2.10593C14.8125 2.10593 16.101 1.58653 15.9936 2.84798C15.9578 3.36743 15.6715 5.1854 15.3852 7.15183C14.9557 9.9345 14.4904 12.9769 14.4904 12.9769C14.4904 12.9769 14.4188 13.8302 13.8104 13.9786C13.202 14.127 12.1998 13.4592 12.0208 13.3108C11.8776 13.1995 9.33649 11.5299 8.40593 10.7136C8.15538 10.491 7.86907 10.0458 8.44169 9.52638C9.7302 8.302 11.2692 6.78083 12.1998 5.81618C12.6293 5.37093 13.0587 4.33208 11.2692 5.59353C8.72806 7.41155 6.22268 9.11825 6.22268 9.11825C6.22268 9.11825 5.65001 9.48925 4.57629 9.15533C3.50252 8.82145 2.24983 8.3762 2.24983 8.3762C2.24983 8.3762 1.39089 7.81968 2.85832 7.22603Z" fill="white"/>
  </g>
</svg>