<svg xmlns="http://www.w3.org/2000/svg" width="18" height="20" viewBox="0 0 18 20" fill="none">
  <path d="M1.5 5H16.5" stroke="#E0E1E8" stroke-width="1.8" stroke-linecap="round" stroke-linejoin="round"/>
  <path d="M14.8332 4.99984V16.6665C14.8332 17.1085 14.6576 17.5325 14.345 17.845C14.0325 18.1576 13.6085 18.3332 13.1665 18.3332H4.83317C4.39114 18.3332 3.96722 18.1576 3.65466 17.845C3.3421 17.5325 3.1665 17.1085 3.1665 16.6665V4.99984M5.6665 4.99984V3.33317C5.6665 2.89114 5.8421 2.46722 6.15466 2.15466C6.46722 1.8421 6.89114 1.6665 7.33317 1.6665H10.6665C11.1085 1.6665 11.5325 1.8421 11.845 2.15466C12.1576 2.46722 12.3332 2.89114 12.3332 3.33317V4.99984" stroke="#E0E1E8" stroke-width="1.8" stroke-linecap="round" stroke-linejoin="round"/>
</svg>