<svg width="20" height="20" viewBox="0 0 20 20" fill="none" xmlns="http://www.w3.org/2000/svg">
<g clip-path="url(#clip0_87_1374)">
<path d="M18.8008 17.0325L14.44 12.6717C15.5338 11.1344 16.0101 9.24224 15.7744 7.37031C15.5388 5.49838 14.6084 3.78332 13.1677 2.56512C11.727 1.34692 9.88112 0.714505 7.99606 0.793242C6.111 0.871978 4.32433 1.65612 2.99022 2.99022C1.65612 4.32432 0.871982 6.11099 0.793245 7.99605C0.714509 9.88112 1.34692 11.727 2.56513 13.1677C3.78333 14.6084 5.49838 15.5388 7.37031 15.7744C9.24224 16.0101 11.1344 15.5338 12.6717 14.44L17.0325 18.8008C17.267 19.0353 17.585 19.1671 17.9167 19.1671C18.2483 19.1671 18.5663 19.0353 18.8008 18.8008C19.0353 18.5663 19.1671 18.2483 19.1671 17.9167C19.1671 17.585 19.0353 17.267 18.8008 17.0325ZM2.5 8.33333C2.5 7.17961 2.84212 6.05179 3.48309 5.0925C4.12407 4.13322 5.03511 3.38554 6.10101 2.94403C7.16692 2.50252 8.33981 2.387 9.47136 2.61208C10.6029 2.83716 11.6423 3.39273 12.4581 4.20854C13.2739 5.02435 13.8295 6.06375 14.0546 7.1953C14.2797 8.32686 14.1641 9.49975 13.7226 10.5657C13.2811 11.6316 12.5334 12.5426 11.5742 13.1836C10.6149 13.8245 9.48706 14.1667 8.33333 14.1667C6.78678 14.1649 5.30407 13.5498 4.21049 12.4562C3.11691 11.3626 2.50177 9.87988 2.5 8.33333Z" fill="white"/>
</g>
<defs>
<clipPath id="clip0_87_1374">
<rect width="20" height="20" fill="white"/>
</clipPath>
</defs>
</svg>
