<svg xmlns="http://www.w3.org/2000/svg" width="32" height="32" viewBox="0 0 32 32" fill="none">
  <path d="M19.1736 13.0511C21.1301 12.739 23.9597 10.617 23.9597 8.96312C23.9597 8.46383 23.5684 8.12057 22.9965 8.12057C21.9128 8.12057 20.0766 9.80568 19.1736 13.0511ZM10.1129 21.2582C7.55424 21.2582 7.34353 23.8794 9.90218 23.8794C11.046 23.8794 12.4307 23.4114 13.1531 22.5688C12.0996 21.6326 11.2266 21.2582 10.1129 21.2582ZM26.3979 20.1348C26.5485 24.5348 24.3812 27 20.7087 27C18.5414 27 17.4577 26.1575 15.1399 24.5972C13.9358 25.9702 11.6481 27 9.75167 27C3.21959 27 3.4905 18.4184 10.143 18.4184C11.5277 18.4184 12.7017 18.7929 14.2068 19.7603L15.2001 16.1716C11.1062 15.017 9.05933 11.7716 11.0762 7.12198H14.3272C12.5211 10.2113 13.7552 12.7702 16.0429 13.0511C17.2771 8.52624 19.9261 5 23.448 5C25.4347 5 27 6.34184 27 8.77589C27 12.6766 22.0633 15.8596 18.3307 16.1716L16.7955 21.7575C18.5414 23.8482 23.3878 25.8766 23.3878 20.1348H26.3979Z" fill="#F5F1ED"/>
</svg>