<svg xmlns="http://www.w3.org/2000/svg" width="32" height="32" viewBox="0 0 32 32" fill="none">
  <path d="M24.1066 3.96094H13.1232V18.7781H27.9602V7.79467C27.9602 5.69359 26.2276 3.96094 24.1265 3.96094C24.1165 3.96094 24.1066 3.96094 24.1066 3.96094Z" fill="white"/>
  <path d="M9.69775 3.96094H7.80578C5.70469 3.96094 3.97205 5.69359 3.97205 7.79467V9.68665H9.69775V3.96094Z" fill="white"/>
  <path d="M3.96204 13.1113H9.68774V18.837H3.96204V13.1113Z" fill="white"/>
  <path d="M22.2744 27.9494H24.1664C26.2675 27.9494 28.0001 26.2167 28.0001 24.1156V24.1057V22.2734H22.2744V27.9494Z" fill="white"/>
  <path d="M13.1232 22.2637H18.8489V27.9894H13.1232V22.2637Z" fill="white"/>
  <path d="M3.96204 22.2637V24.1556C3.96204 26.2567 5.69468 27.9894 7.79577 27.9894H9.68774V22.2637H3.96204Z" fill="white"/>
</svg>