<svg width="25" height="16" viewBox="0 0 25 16" fill="none" xmlns="http://www.w3.org/2000/svg">
<path d="M17.7134 4.07354L19.1776 5.90686C19.3452 6.11278 19.4939 6.28217 19.554 6.37849C19.9919 6.84225 20.2374 7.46902 20.2371 8.12216C20.1959 8.89264 19.7247 9.41744 19.2883 9.97872L18.2636 11.2607L17.7292 11.925C17.71 11.9479 17.6977 11.9762 17.6936 12.0064C17.6896 12.0366 17.6941 12.0674 17.7065 12.095C17.719 12.1225 17.7388 12.1456 17.7637 12.1614C17.7885 12.1773 17.8172 12.1851 17.8462 12.1841H23.1877C24.0036 12.1841 25.0315 12.9147 24.9714 14.024C24.9697 14.5282 24.7782 15.0113 24.4387 15.3678C24.0993 15.7243 23.6393 15.9254 23.1592 15.9271H14.7944C14.2441 15.9271 12.764 15.9902 12.3497 14.6451C12.2616 14.364 12.2496 14.0628 12.3149 13.775C12.4354 13.3493 12.6258 12.9491 12.8778 12.5926C13.2985 11.9283 13.7539 11.2641 14.2029 10.6198C14.7817 9.77616 15.3763 8.95912 15.9613 8.09888C15.9821 8.07088 15.9934 8.0364 15.9934 8.00088C15.9934 7.96542 15.9821 7.93094 15.9613 7.90294L13.8361 5.24594C13.8223 5.22667 13.8043 5.21105 13.7837 5.2003C13.7632 5.18954 13.7405 5.18394 13.7175 5.18394C13.6945 5.18394 13.6718 5.18954 13.6512 5.2003C13.6307 5.21105 13.6127 5.22667 13.5989 5.24594C13.0296 6.053 10.5376 9.62664 10.0062 10.3507C9.47494 11.0747 8.16567 11.1146 7.44144 10.3507L4.11762 6.84678C4.09639 6.82441 4.06931 6.80916 4.03981 6.80298C4.01031 6.79679 3.97974 6.79995 3.95195 6.81205C3.92417 6.82415 3.90043 6.84464 3.88376 6.87093C3.86708 6.89722 3.85822 6.92812 3.85829 6.9597V13.6986C3.86611 14.1767 3.73128 14.6455 3.47267 15.0392C3.21405 15.4329 2.84464 15.7318 2.41617 15.8939C2.14241 15.9939 1.84982 16.0238 1.56281 15.981C1.27581 15.9382 1.00271 15.824 0.766276 15.6478C0.529849 15.4717 0.336944 15.2387 0.203649 14.9684C0.0703531 14.6981 0.000529505 14.3982 0 14.0938V1.97782C0.0190545 1.54119 0.168654 1.12198 0.427542 0.77974C0.68643 0.437505 1.04143 0.189658 1.44212 0.0714182C1.78581 -0.0247429 2.14761 -0.0237807 2.49083 0.0742069C2.83406 0.172194 3.14653 0.363725 3.39656 0.62939L8.50725 6.00318C8.52249 6.0195 8.54103 6.0321 8.56145 6.04006C8.58195 6.04802 8.60379 6.05117 8.62549 6.04926C8.64726 6.04737 8.66828 6.04046 8.6872 6.02906C8.70612 6.01765 8.72241 6.00202 8.73495 5.98326L12.3655 0.705779C12.5333 0.491534 12.7436 0.318396 12.9818 0.198491C13.22 0.078586 13.4802 0.0148124 13.7444 0.0116362H23.1877C23.4461 0.0120836 23.7015 0.0704766 23.9367 0.18291C24.1719 0.295345 24.3816 0.459228 24.5517 0.663599C24.7217 0.867968 24.8482 1.10812 24.9228 1.36798C24.9974 1.62785 25.0182 1.90143 24.984 2.17046C24.9175 2.63712 24.692 3.0626 24.3495 3.36798C24.0069 3.67335 23.5705 3.8379 23.1213 3.83108H17.8335C17.807 3.83176 17.7811 3.83991 17.7585 3.85468C17.736 3.86945 17.7176 3.8903 17.7053 3.91506C17.693 3.93982 17.6873 3.96758 17.6887 3.99545C17.6902 4.02332 17.6986 4.05029 17.7134 4.07354Z" fill="#E42575"/>
</svg>
