<svg xmlns="http://www.w3.org/2000/svg" width="32" height="32" viewBox="0 0 32 32" fill="none">
  <path d="M1.59998 24.1752C1.59998 27.284 3.25198 28 4.97038 28C8.60558 28 11.3384 24.8016 12.968 22.2744C12.7696 22.8328 12.6592 23.392 12.6592 23.9296C12.6592 25.4056 13.4968 26.4568 15.1488 26.4568C17.4184 26.4568 19.8416 24.4432 21.0976 22.2736C21.0096 22.5872 20.9656 22.8776 20.9656 23.1456C20.9656 24.1752 21.5384 24.824 22.7056 24.824C26.3856 24.824 30.0864 18.2256 30.0864 12.4544C30.0864 7.9584 27.8384 4 22.1984 4C12.2856 4 1.59998 16.2576 1.59998 24.1752ZM18.784 11.9624C18.784 10.844 19.4008 10.0616 20.304 10.0616C21.1856 10.0616 21.8024 10.844 21.8024 11.9624C21.8024 13.0808 21.1864 13.8864 20.3048 13.8864C19.4008 13.8864 18.7848 13.0808 18.7848 11.9624H18.784ZM23.4992 11.9624C23.4992 10.844 24.1152 10.0616 25.0192 10.0616C25.9 10.0616 26.5168 10.844 26.5168 11.9624C26.5168 13.0808 25.9008 13.8864 25.0192 13.8864C24.1152 13.8864 23.4992 13.0808 23.4992 11.9624Z" fill="#9886E5"/>
</svg>