<svg xmlns="http://www.w3.org/2000/svg" width="32" height="32" viewBox="0 0 32 32" fill="none">
  <mask id="mask0_6297_17985" style="mask-type:luminance" maskUnits="userSpaceOnUse" x="3" y="0" width="25" height="32">
    <path d="M27.7646 0.941406H3.76465V31.0591H27.7646V0.941406Z" fill="white"/>
  </mask>
  <g mask="url(#mask0_6297_17985)">
    <path d="M20.6933 3.65092L26.9768 9.77233C27.5117 10.2923 27.7749 10.8184 27.7666 11.3486C27.7584 11.8787 27.5282 12.362 27.0784 12.8004C26.6078 13.2592 26.0999 13.4917 25.5568 13.5018C25.0136 13.51 24.4746 13.2531 23.9397 12.7331L17.5132 6.47304C16.7835 5.76142 16.0786 5.25774 15.4008 4.96207C14.7228 4.6664 14.0097 4.6195 13.2634 4.82341C12.515 5.02528 11.7128 5.54525 10.8524 6.38128C9.66664 7.53746 9.10066 8.62226 9.15873 9.63572C9.21676 10.6491 9.80551 11.7013 10.9229 12.7882L17.4013 19.1013C17.9424 19.6273 18.2077 20.1534 18.1994 20.6754C18.1911 21.1995 17.9589 21.6828 17.5008 22.1293C17.0447 22.5738 16.5409 22.8063 15.9936 22.8247C15.4464 22.843 14.9011 22.5881 14.3621 22.062L8.07864 15.9406C7.05662 14.9456 6.3186 14.0035 5.8646 13.1144C5.41059 12.2254 5.2406 11.2201 5.35877 10.0986C5.46449 9.13817 5.77752 8.20833 6.29994 7.30706C6.82028 6.40575 7.56659 5.48408 8.53473 4.53997C9.68734 3.41642 10.7881 2.55592 11.8371 1.95642C12.8841 1.35692 13.8977 1.02455 14.8762 0.955218C15.8568 0.885888 16.8229 1.07756 17.7785 1.53025C18.7343 1.98293 19.7045 2.68846 20.6912 3.65092H20.6933Z" fill="url(#paint0_linear_6297_17985)"/>
    <path d="M10.8358 28.35L4.55444 22.2286C4.01958 21.7066 3.7563 21.1825 3.76459 20.6524C3.77289 20.1222 4.003 19.6389 4.45285 19.2005C4.92344 18.7417 5.43135 18.5092 5.97449 18.499C6.51764 18.4909 7.05664 18.7458 7.5915 19.2678L14.0159 25.5279C14.7477 26.2395 15.4505 26.7432 16.1284 27.0388C16.8063 27.3345 17.5195 27.3794 18.2678 27.1775C19.0162 26.9756 19.8185 26.4556 20.6788 25.6176C21.8646 24.4614 22.4306 23.3766 22.3725 22.3632C22.3145 21.3497 21.7257 20.2975 20.6084 19.2087L17.1567 15.8747C16.6156 15.3486 16.3502 14.8225 16.3585 14.3005C16.3668 13.7765 16.599 13.2932 17.0572 12.8467C17.5133 12.4021 18.017 12.1697 18.5643 12.1513C19.1116 12.133 19.6568 12.3878 20.1958 12.914L23.4505 16.0562C24.4725 17.0513 25.2106 17.9933 25.6646 18.8824C26.1186 19.7715 26.2885 20.7767 26.1704 21.8982C26.0647 22.8587 25.7517 23.7885 25.2292 24.6898C24.7089 25.5911 23.9626 26.5128 22.9944 27.4569C21.8418 28.5804 20.741 29.4409 19.692 30.0404C18.643 30.6399 17.6293 30.9743 16.6488 31.0437C15.6682 31.113 14.7021 30.9213 13.7465 30.4686C12.7908 30.0159 11.8205 29.3104 10.8338 28.348L10.8358 28.35Z" fill="url(#paint1_linear_6297_17985)"/>
    <path d="M14.754 12.5566C16.0283 12.5566 17.0613 11.5405 17.0613 10.2871C17.0613 9.03367 16.0283 8.01758 14.754 8.01758C13.4797 8.01758 12.4467 9.03367 12.4467 10.2871C12.4467 11.5405 13.4797 12.5566 14.754 12.5566Z" fill="url(#paint2_radial_6297_17985)"/>
  </g>
  <defs>
    <linearGradient id="paint0_linear_6297_17985" x1="25.9433" y1="7.21728" x2="6.57784" y2="15.9668" gradientUnits="userSpaceOnUse">
      <stop stop-color="#201C1B"/>
      <stop offset="0.36" stop-color="#77390D"/>
      <stop offset="0.67" stop-color="#EA8101"/>
      <stop offset="1" stop-color="#F4B852"/>
    </linearGradient>
    <linearGradient id="paint1_linear_6297_17985" x1="6.12401" y1="25.0358" x2="28.628" y2="18.2266" gradientUnits="userSpaceOnUse">
      <stop stop-color="#1F1D1C"/>
      <stop offset="0.37" stop-color="#77390D"/>
      <stop offset="0.67" stop-color="#EA8101"/>
      <stop offset="1" stop-color="#F4FB52"/>
    </linearGradient>
    <radialGradient id="paint2_radial_6297_17985" cx="0" cy="0" r="1" gradientUnits="userSpaceOnUse" gradientTransform="translate(14.754 10.2892) scale(2.30733 2.26953)">
      <stop stop-color="#F4B852"/>
      <stop offset="0.33" stop-color="#EA8101"/>
      <stop offset="0.64" stop-color="#77390D"/>
      <stop offset="1" stop-color="#211C1D"/>
    </radialGradient>
  </defs>
</svg>