<svg width="32" height="32" viewBox="0 0 32 32" fill="none" xmlns="http://www.w3.org/2000/svg">
<path d="M20.223 0.574097V15.7251L18.0246 18.1494L22.1267 25.4856C23.9375 23.4937 29.0103 17.9179 30.6807 16.0635V0.574097H20.223ZM20.2261 23.3846L16.1095 18.8328L16.0898 18.8105L13.2448 15.7466V0.574097H0.561577L0.971968 1.01787C1.72812 1.92753 3.56492 3.8533 5.33643 5.75848C6.74115 7.28233 8.29706 8.99563 10.0903 10.9427C8.81458 9.90529 7.71267 8.93233 6.69732 8.06451L5.40084 6.96407C4.12628 5.88509 3.04629 4.97521 2.78686 4.74259V16.0637C3.71566 17.1427 7.25956 20.994 10.4785 24.5486C12.3802 26.6649 14.4753 28.9506 16.7446 31.4259C17.4382 30.6488 19.674 28.1896 22.1265 25.4858L20.2259 23.3848L20.2261 23.3846Z" fill="url(#paint0_radial_237_1586)"/>
<defs>
<radialGradient id="paint0_radial_237_1586" cx="0" cy="0" r="1" gradientUnits="userSpaceOnUse" gradientTransform="translate(15.1863 14.1432) scale(17.2029 16.8483)">
<stop stop-color="#FC730A"/>
<stop offset="1" stop-color="#BC3D05"/>
</radialGradient>
</defs>
</svg>
