<svg xmlns="http://www.w3.org/2000/svg" width="20" height="20" viewBox="0 0 20 20" fill="none">
  <path d="M13.1104 0.668701H13.0093C12.6613 0.672007 12.3243 0.790796 12.0511 1.00642C11.7779 1.22204 11.5841 1.52228 11.5 1.86C11.41 2.1888 11.2144 2.47891 10.9434 2.6857C10.6724 2.8925 10.3409 3.00451 10 3.00451C9.6591 3.00451 9.32763 2.8925 9.05661 2.6857C8.78559 2.47891 8.59002 2.1888 8.49999 1.86C8.41593 1.52228 8.22209 1.22204 7.94891 1.00642C7.67572 0.790796 7.33867 0.672007 6.99066 0.668701L6.88957 0.668701C5.85877 0.669936 4.87055 1.07996 4.14167 1.80885C3.41279 2.53773 3.00276 3.52595 3.00153 4.55674V16.9985C3.00153 17.6172 3.24731 18.2105 3.68479 18.648C4.12228 19.0855 4.71565 19.3313 5.33435 19.3313H6.99066C7.33867 19.328 7.67572 19.2092 7.94891 18.9936C8.22209 18.778 8.41593 18.4777 8.49999 18.14C8.59002 17.8112 8.78559 17.5211 9.05661 17.3143C9.32763 17.1075 9.6591 16.9955 10 16.9955C10.3409 16.9955 10.6724 17.1075 10.9434 17.3143C11.2144 17.5211 11.41 17.8112 11.5 18.14C11.5841 18.4777 11.7779 18.778 12.0511 18.9936C12.3243 19.2092 12.6613 19.328 13.0093 19.3313H14.6656C15.2844 19.3313 15.8777 19.0855 16.3152 18.648C16.7527 18.2105 16.9985 17.6172 16.9985 16.9985V4.55674C16.9972 3.52595 16.5872 2.53773 15.8583 1.80885C15.1294 1.07996 14.1412 0.669936 13.1104 0.668701ZM14.6656 17.7761L12.9992 17.7271C12.8166 17.0672 12.4213 16.4861 11.8748 16.0737C11.3282 15.6614 10.6608 15.4409 9.97615 15.4465C9.2915 15.4521 8.62782 15.6834 8.08803 16.1046C7.54824 16.5258 7.16251 17.1133 6.99066 17.7761H5.33435C5.12812 17.7761 4.93033 17.6942 4.7845 17.5483C4.63867 17.4025 4.55674 17.2047 4.55674 16.9985V13.888H6.11196C6.31819 13.888 6.51598 13.8061 6.66181 13.6603C6.80764 13.5145 6.88957 13.3167 6.88957 13.1104C6.88957 12.9042 6.80764 12.7064 6.66181 12.5606C6.51598 12.4148 6.31819 12.3328 6.11196 12.3328H4.55674V4.55674C4.55674 3.93804 4.80252 3.34468 5.24001 2.90719C5.6775 2.4697 6.27086 2.22392 6.88957 2.22392L7.00076 2.27291C7.1829 2.92876 7.57464 3.50701 8.11618 3.91938C8.65772 4.33175 9.31933 4.55559 10 4.55674C10.6899 4.55087 11.3589 4.31981 11.9054 3.8987C12.4518 3.4776 12.8458 2.88951 13.0272 2.22392H13.1104C13.7291 2.22392 14.3225 2.4697 14.76 2.90719C15.1975 3.34468 15.4433 3.93804 15.4433 4.55674V12.3328H13.888C13.6818 12.3328 13.484 12.4148 13.3382 12.5606C13.1924 12.7064 13.1104 12.9042 13.1104 13.1104C13.1104 13.3167 13.1924 13.5145 13.3382 13.6603C13.484 13.8061 13.6818 13.888 13.888 13.888H15.4433V16.9985C15.4433 17.2047 15.3613 17.4025 15.2155 17.5483C15.0697 17.6942 14.8719 17.7761 14.6656 17.7761Z" fill="white"/>
  <path d="M10.7776 12.3328H9.22237C9.01614 12.3328 8.81835 12.4147 8.67252 12.5605C8.52669 12.7063 8.44476 12.9041 8.44476 13.1104C8.44476 13.3166 8.52669 13.5144 8.67252 13.6602C8.81835 13.8061 9.01614 13.888 9.22237 13.888H10.7776C10.9838 13.888 11.1816 13.8061 11.3274 13.6602C11.4733 13.5144 11.5552 13.3166 11.5552 13.1104C11.5552 12.9041 11.4733 12.7063 11.3274 12.5605C11.1816 12.4147 10.9838 12.3328 10.7776 12.3328Z" fill="white"/>
</svg>