<svg xmlns="http://www.w3.org/2000/svg" width="20" height="20" viewBox="0 0 20 20" fill="none">
  <g clip-path="url(#clip0_869_2685)">
    <path d="M10 2.5V5" stroke="#E0E1E8" stroke-width="2" stroke-miterlimit="10"/>
    <path d="M16.4816 5.18506L14.7141 6.95256" stroke="#E0E1E8" stroke-width="2" stroke-miterlimit="10"/>
    <path d="M19.1665 11.6667H16.6665" stroke="#E0E1E8" stroke-width="2" stroke-miterlimit="10"/>
    <path d="M5.83325 7.5L8.82159 10.4883" stroke="#E0E1E8" stroke-width="2" stroke-miterlimit="10"/>
    <path d="M0.833252 11.6667H3.33325" stroke="#E0E1E8" stroke-width="2" stroke-miterlimit="10"/>
    <path d="M9.99992 13.3333C10.9204 13.3333 11.6666 12.5871 11.6666 11.6667C11.6666 10.7462 10.9204 10 9.99992 10C9.07944 10 8.33325 10.7462 8.33325 11.6667C8.33325 12.5871 9.07944 13.3333 9.99992 13.3333Z" stroke="#E0E1E8" stroke-width="2" stroke-miterlimit="10"/>
    <path d="M17.0708 17.5C18.3799 15.915 19.1666 13.8825 19.1666 11.6667C19.1666 6.60417 15.0624 2.5 9.99992 2.5C4.93742 2.5 0.833252 6.60417 0.833252 11.6667C0.833252 13.8825 1.61992 15.915 2.92909 17.5H17.0708Z" stroke="#E0E1E8" stroke-width="2" stroke-miterlimit="10" stroke-linecap="square"/>
  </g>
  <defs>
    <clipPath id="clip0_869_2685">
      <rect width="20" height="20" fill="white"/>
    </clipPath>
  </defs>
</svg>