<svg xmlns="http://www.w3.org/2000/svg" width="18" height="20" viewBox="0 0 18 20" fill="none">
  <path d="M14.4445 10.8886V6.99967C14.4445 5.5557 13.8709 4.17087 12.8499 3.14983C11.8289 2.12879 10.444 1.55518 9.00006 1.55518C7.55609 1.55518 6.17126 2.12879 5.15022 3.14983C4.12918 4.17087 3.55557 5.5557 3.55557 6.99967V10.8886C3.53243 12.8098 2.99531 14.6897 2 16.3331H16.0001C15.0048 14.6897 14.4677 12.8098 14.4445 10.8886Z" stroke="#E0E1E8" stroke-opacity="0.7" stroke-width="2" stroke-miterlimit="10" stroke-linecap="square"/>
  <path d="M6.80225 17.8884C6.96386 18.3421 7.26188 18.7346 7.65541 19.0121C8.04894 19.2897 8.5187 19.4387 9.00027 19.4387C9.48183 19.4387 9.95159 19.2897 10.3451 19.0121C10.7387 18.7346 11.0367 18.3421 11.1983 17.8884H6.80225Z" fill="#E0E1E8" fill-opacity="0.7"/>
</svg>