<svg width="110" height="32" viewBox="0 0 110 32" fill="none" xmlns="http://www.w3.org/2000/svg">
<path d="M20.223 0.574097V15.7251L18.0246 18.1494L22.1267 25.4856C23.9376 23.4937 29.0103 17.9179 30.6807 16.0635V0.574097H20.223ZM20.2261 23.3846L16.1095 18.8328L16.0898 18.8105L13.2448 15.7466V0.574097H0.561584L0.971976 1.01787C1.72812 1.92753 3.56493 3.8533 5.33644 5.75848C6.74116 7.28233 8.29707 8.99563 10.0903 10.9427C8.81458 9.90529 7.71268 8.93233 6.69732 8.06451L5.40085 6.96407C4.12628 5.88509 3.0463 4.97521 2.78687 4.74259V16.0637C3.71567 17.1427 7.25957 20.994 10.4785 24.5486C12.3802 26.6649 14.4753 28.9506 16.7446 31.4259C17.4382 30.6488 19.674 28.1896 22.1265 25.4858L20.2259 23.3848L20.2261 23.3846Z" fill="url(#paint0_radial_262_802)"/>
<path d="M50.2335 10.2228L45.147 21.3673H45.0662L40 10.2228H42.3138L45.0999 16.5372L47.8929 10.2228H50.2339H50.2335Z" fill="white"/>
<path d="M52.8759 15.6737C52.8759 12.5503 55.4193 10.0004 58.5289 10.0004C61.6384 10.0004 64.1888 12.5503 64.1888 15.6737C64.1888 18.797 61.6388 21.3068 58.522 21.3068C55.4052 21.3068 52.8755 18.7702 52.8755 15.6737H52.8759ZM61.9764 15.6603C61.9764 13.7579 60.4247 12.2062 58.5223 12.2062C56.62 12.2062 55.0817 13.7579 55.0817 15.6603C55.0817 17.5626 56.6265 19.094 58.5223 19.094C60.4182 19.094 61.9764 17.5492 61.9764 15.6603Z" fill="white"/>
<path d="M74.9877 12.3881H72.3164V21.097H70.1239V12.3881H67.4457V10.2224H74.988V12.3881H74.9877Z" fill="white"/>
<path d="M79.256 10.2228H81.4416V21.0974H79.256V10.2228Z" fill="white"/>
<path d="M85.8986 15.6668C85.8986 12.5974 88.4822 10 91.5451 10C92.9617 10.0203 94.2164 10.5803 95.3566 11.6796L94.095 13.3997C93.3528 12.6713 92.4625 12.2258 91.5248 12.2258C89.7775 12.2258 88.1113 13.7775 88.1113 15.6798C88.1113 17.5821 89.8383 19.1136 91.5182 19.1136C92.5165 19.1136 93.38 18.5808 94.1019 17.8723L95.3566 19.6399C94.3985 20.591 93.2315 21.306 91.5856 21.306C88.4485 21.306 85.8986 18.7224 85.8986 15.6664V15.6668Z" fill="white"/>
<path d="M98.6871 15.6737C98.6871 12.5503 101.23 10.0004 104.34 10.0004C107.45 10.0004 110 12.5503 110 15.6737C110 18.797 107.45 21.3068 104.333 21.3068C101.216 21.3068 98.6867 18.7702 98.6867 15.6737H98.6871ZM107.788 15.6603C107.788 13.7579 106.236 12.2062 104.334 12.2062C102.431 12.2062 100.893 13.7579 100.893 15.6603C100.893 17.5626 102.438 19.094 104.334 19.094C106.229 19.094 107.788 17.5492 107.788 15.6603Z" fill="white"/>
<defs>
<radialGradient id="paint0_radial_262_802" cx="0" cy="0" r="1" gradientUnits="userSpaceOnUse" gradientTransform="translate(15.1863 14.1432) scale(17.2029 16.8483)">
<stop stop-color="#FC730A"/>
<stop offset="1" stop-color="#BC3D05"/>
</radialGradient>
</defs>
</svg>
