<svg xmlns="http://www.w3.org/2000/svg" width="32" height="32" viewBox="0 0 32 32" fill="none">
  <path d="M20.223 0.574097V15.7251L18.0245 18.1494L22.1266 25.4856C23.9375 23.4937 29.0102 17.9179 30.6807 16.0635V0.574097H20.223ZM20.2261 23.3846L16.1094 18.8328L16.0897 18.8105L13.2447 15.7466V0.574097H0.561523L0.971915 1.01787C1.72806 1.92753 3.56487 3.8533 5.33637 5.75848C6.7411 7.28233 8.29701 8.99563 10.0902 10.9427C8.81452 9.90529 7.71262 8.93233 6.69726 8.06451L5.40078 6.96407C4.12622 5.88509 3.04624 4.97521 2.78681 4.74259V16.0637C3.71561 17.1427 7.25951 20.994 10.4785 24.5486C12.3801 26.6649 14.4752 28.9506 16.7446 31.4259C17.4381 30.6488 19.6739 28.1896 22.1264 25.4858L20.2259 23.3848L20.2261 23.3846Z" fill="url(#paint0_radial_1255_1997)"/>
  <defs>
    <radialGradient id="paint0_radial_1255_1997" cx="0" cy="0" r="1" gradientUnits="userSpaceOnUse" gradientTransform="translate(15.1862 14.1432) scale(17.2029 16.8483)">
      <stop stop-color="#FC730A"/>
      <stop offset="1" stop-color="#BC3D05"/>
    </radialGradient>
  </defs>
</svg>