<svg xmlns="http://www.w3.org/2000/svg" width="70" height="12" viewBox="0 0 70 12" fill="none">
  <path d="M10.2335 0.222778L5.14701 11.3673H5.06623L0 0.222778H2.3138L5.09992 6.53718L7.89292 0.222778H10.2339H10.2335Z" fill="#E0E1E8"/>
  <path d="M12.8759 5.67366C12.8759 2.55033 15.4193 0.000366211 18.5289 0.000366211C21.6384 0.000366211 24.1888 2.55033 24.1888 5.67366C24.1888 8.797 21.6388 11.3068 18.522 11.3068C15.4052 11.3068 12.8755 8.7702 12.8755 5.67366H12.8759ZM21.9764 5.66026C21.9764 3.75793 20.4247 2.20623 18.5223 2.20623C16.62 2.20623 15.0817 3.75793 15.0817 5.66026C15.0817 7.56259 16.6265 9.09401 18.5223 9.09401C20.4182 9.09401 21.9764 7.54919 21.9764 5.66026Z" fill="#E0E1E8"/>
  <path d="M34.9877 2.38806H32.3164V11.097H30.124V2.38806H27.4458V0.222412H34.9881V2.38806H34.9877Z" fill="#E0E1E8"/>
  <path d="M39.2559 0.222778H41.4414V11.0974H39.2559V0.222778Z" fill="#E0E1E8"/>
  <path d="M45.8984 5.66678C45.8984 2.59741 48.4821 0 51.5449 0C52.9615 0.0202838 54.2162 0.58026 55.3565 1.67957L54.0949 3.3997C53.3527 2.6713 52.4624 2.22578 51.5246 2.22578C49.7773 2.22578 48.1112 3.77749 48.1112 5.67981C48.1112 7.58214 49.8382 9.11357 51.5181 9.11357C52.5164 9.11357 53.3799 8.58076 54.1018 7.87227L55.3565 9.63986C54.3984 10.591 53.2314 11.306 51.5855 11.306C48.4484 11.306 45.8984 8.72238 45.8984 5.66641V5.66678Z" fill="#E0E1E8"/>
  <path d="M58.6869 5.67366C58.6869 2.55033 61.23 0.000366211 64.3399 0.000366211C67.4498 0.000366211 69.9998 2.55033 69.9998 5.67366C69.9998 8.797 67.4498 11.3068 64.333 11.3068C61.2162 11.3068 58.6865 8.7702 58.6865 5.67366H58.6869ZM67.7874 5.66026C67.7874 3.75793 66.2357 2.20623 64.3334 2.20623C62.4311 2.20623 60.8927 3.75793 60.8927 5.66026C60.8927 7.56259 62.4376 9.09401 64.3334 9.09401C66.2292 9.09401 67.7874 7.54919 67.7874 5.66026Z" fill="#E0E1E8"/>
</svg>