<svg width="20" height="21" viewBox="0 0 20 21" fill="none" xmlns="http://www.w3.org/2000/svg">
<path d="M15.4445 11.8886V7.99967C15.4445 6.5557 14.8709 5.17087 13.8499 4.14983C12.8289 3.12879 11.444 2.55518 10.0001 2.55518C8.55609 2.55518 7.17126 3.12879 6.15022 4.14983C5.12918 5.17087 4.55557 6.5557 4.55557 7.99967V11.8886C4.53243 13.8098 3.99531 15.6897 3 17.3331H17.0001C16.0048 15.6897 15.4677 13.8098 15.4445 11.8886Z" stroke="#E0E1E8" stroke-opacity="0.7" stroke-width="2" stroke-miterlimit="10" stroke-linecap="square"/>
<path d="M7.802 18.8884C7.96362 19.3421 8.26163 19.7346 8.65516 20.0121C9.04869 20.2897 9.51846 20.4387 10 20.4387C10.4816 20.4387 10.9513 20.2897 11.3449 20.0121C11.7384 19.7346 12.0364 19.3421 12.198 18.8884H7.802Z" fill="#E0E1E8" fill-opacity="0.7"/>
<circle cx="15.5" cy="3.5" r="3" fill="#FF3939" stroke="#111214"/>
</svg>
