<svg width="32" height="32" viewBox="0 0 32 32" fill="none" xmlns="http://www.w3.org/2000/svg">
<rect width="32" height="32" rx="16" fill="white" fill-opacity="0.05"/>
<rect x="0.25" y="0.25" width="31.5" height="31.5" rx="15.75" stroke="white" stroke-opacity="0.1" stroke-width="0.5"/>
<g clip-path="url(#clip0_154_1353)">
<path d="M13.9998 8.66663H9.99984C9.26346 8.66663 8.6665 9.26358 8.6665 9.99996V14C8.6665 14.7363 9.26346 15.3333 9.99984 15.3333H13.9998C14.7362 15.3333 15.3332 14.7363 15.3332 14V9.99996C15.3332 9.26358 14.7362 8.66663 13.9998 8.66663Z" fill="white"/>
<path d="M23.6187 11.0792L20.9207 8.38185C20.6762 8.13832 20.3451 8.00159 20 8.00159C19.6549 8.00159 19.3239 8.13832 19.0794 8.38185L16.3814 11.0792C16.1377 11.3239 16.001 11.6552 16.001 12.0005C16.001 12.3458 16.1377 12.6771 16.3814 12.9218L19.0794 15.6198C19.3239 15.8634 19.6549 16.0001 20 16.0001C20.3451 16.0001 20.6762 15.8634 20.9207 15.6198L23.6187 12.9225C23.8625 12.6777 23.9994 12.3463 23.9994 12.0008C23.9994 11.6554 23.8625 11.324 23.6187 11.0792Z" fill="white"/>
<path d="M21.9998 16.6666H17.9998C17.2635 16.6666 16.6665 17.2636 16.6665 18V22C16.6665 22.7363 17.2635 23.3333 17.9998 23.3333H21.9998C22.7362 23.3333 23.3332 22.7363 23.3332 22V18C23.3332 17.2636 22.7362 16.6666 21.9998 16.6666Z" fill="white"/>
<path d="M13.9998 16.6666H9.99984C9.26346 16.6666 8.6665 17.2636 8.6665 18V22C8.6665 22.7363 9.26346 23.3333 9.99984 23.3333H13.9998C14.7362 23.3333 15.3332 22.7363 15.3332 22V18C15.3332 17.2636 14.7362 16.6666 13.9998 16.6666Z" fill="white"/>
</g>
<defs>
<clipPath id="clip0_154_1353">
<rect width="16" height="16" fill="white" transform="translate(8 8)"/>
</clipPath>
</defs>
</svg>
